<svg width="19" height="11" viewBox="0 0 19 11" fill="none" xmlns="http://www.w3.org/2000/svg">
<path d="M16.7929 10.2071C17.1834 10.5976 17.8166 10.5976 18.2071 10.2071C18.5976 9.81658 18.5976 9.18342 18.2071 8.79289L16.7929 10.2071ZM9.5 1.5L10.2071 0.792893C9.81658 0.402369 9.18342 0.402369 8.79289 0.792893L9.5 1.5ZM0.792892 8.79289C0.402369 9.18342 0.402369 9.81658 0.792893 10.2071C1.18342 10.5976 1.81658 10.5976 2.20711 10.2071L0.792892 8.79289ZM18.2071 8.79289L10.2071 0.792893L8.79289 2.20711L16.7929 10.2071L18.2071 8.79289ZM8.79289 0.792893L0.792892 8.79289L2.20711 10.2071L10.2071 2.20711L8.79289 0.792893Z" fill="white"/>
</svg>
